HIERARCHY
ROOT Hips
{
	OFFSET 0.00 0.00 0.00
	CHANNELS 6 Xposition Yposition Zposition Xrotation Yrotation Zrotation
	JOINT LeftUpLeg
	{
		OFFSET 3.10215 0.00000 0.00000
		CHANNELS 3 Xrotation Yrotation Zrotation
		JOINT LeftLeg
		{
			OFFSET 0.00000 -16.83331 0.00000
			CHANNELS 3 Xrotation Yrotation Zrotation
			JOINT LeftFoot
			{
				OFFSET 0.00000 -15.53879 0.00000
				CHANNELS 3 Xrotation Yrotation Zrotation
				JOINT LeftToeBase
				{
					OFFSET 0.00000 -1.57366 5.87297
					CHANNELS 3 Xrotation Yrotation Zrotation
					End Site
					{
						OFFSET 0.00000 0.00000 2.95275
					}
				}
			}
		}
	}
	JOINT RightUpLeg
	{
		OFFSET -3.10215 0.00000 0.00000
		CHANNELS 3 Xrotation Yrotation Zrotation
		JOINT RightLeg
		{
			OFFSET 0.00000 -16.83331 0.00000
			CHANNELS 3 Xrotation Yrotation Zrotation
			JOINT RightFoot
			{
				OFFSET 0.00000 -15.53879 0.00000
				CHANNELS 3 Xrotation Yrotation Zrotation
				JOINT RightToeBase
				{
					OFFSET 0.00000 -1.57366 5.87297
					CHANNELS 3 Xrotation Yrotation Zrotation
					End Site
					{
						OFFSET 0.00000 0.00000 2.95275
					}
				}
			}
		}
	}
	JOINT Spine
	{
		OFFSET 0.00000 0.03937 0.00000
		CHANNELS 3 Xrotation Yrotation Zrotation
		JOINT Spine1
		{
			OFFSET 0.00000 8.31046 0.00000
			CHANNELS 3 Xrotation Yrotation Zrotation
			JOINT Neck
			{
				OFFSET 0.00000 6.25463 0.00000
				CHANNELS 3 Xrotation Yrotation Zrotation
				JOINT Head
				{
					OFFSET 0.00000 8.60817 0.00000
					CHANNELS 3 Xrotation Yrotation Zrotation
					End Site
					{
						OFFSET 0.00000 4.52755 0.00000
					}
				}
			}
			JOINT LeftShoulder
			{
				OFFSET 0.00000 6.25463 0.00000
				CHANNELS 3 Xrotation Yrotation Zrotation
				JOINT LeftArm
				{
					OFFSET 7.44857 -0.00003 0.00000
					CHANNELS 3 Xrotation Yrotation Zrotation
					JOINT LeftForeArm
					{
						OFFSET 10.73545 -0.00004 0.00000
						CHANNELS 3 Xrotation Yrotation Zrotation
						JOINT LeftHand
						{
							OFFSET 10.15840 -0.00004 0.00000
							CHANNELS 3 Xrotation Yrotation Zrotation
							JOINT LeftHandThumb
							{
								OFFSET 0.00000 0.00000 0.00000
								CHANNELS 3 Xrotation Yrotation Zrotation
								End Site
								{
									OFFSET 0.00000 0.00000 3.93700
								}
							}
							JOINT L_Wrist_End
							{
								OFFSET 3.93700 -0.00001 0.00000
								CHANNELS 3 Xrotation Yrotation Zrotation
							}
						}
					}
				}
			}
			JOINT RightShoulder
			{
				OFFSET 0.00000 6.25463 0.00000
				CHANNELS 3 Xrotation Yrotation Zrotation
				JOINT RightArm
				{
					OFFSET -7.44857 -0.00003 0.00000
					CHANNELS 3 Xrotation Yrotation Zrotation
					JOINT RightForeArm
					{
						OFFSET -10.73545 -0.00004 0.00000
						CHANNELS 3 Xrotation Yrotation Zrotation
						JOINT RightHand
						{
							OFFSET -10.15840 -0.00004 0.00000
							CHANNELS 3 Xrotation Yrotation Zrotation
							JOINT RightHandThumb
							{
								OFFSET 0.00000 0.00000 0.00000
								CHANNELS 3 Xrotation Yrotation Zrotation
								End Site
								{
									OFFSET 0.00000 0.00000 3.93700
								}
							}
							JOINT R_Wrist_End
							{
								OFFSET -5.39369 -0.00002 0.00000
								CHANNELS 3 Xrotation Yrotation Zrotation
							}
						}
					}
				}
			}
		}
	}
}
MOTION
Frames: 17
Frame Time: 0.008333
 -93.0015 33.0084 -18.2055 170.6241 -73.0479 168.5610 12.7233 -25.2816 -3.1752 8.9878 0.0000 -0.0000 -13.5661 -9.0985 -11.7625 -6.3656 -0.0000 0.0000 -22.1211 0.8447 -4.9357 0.8834 0.0000 -0.0000 -12.9190 5.1906 16.5971 1.8747 -0.0000 0.0000 -5.8277 -0.0810 -1.3690 1.7651 -1.2529 2.4993 19.8730 15.7787 3.1296 1.9967 -4.5227 -3.5798 17.4566 -6.2481 25.4187 -17.7321 -13.1724 -94.3477 -0.0001 -33.5598 -0.0000 -14.2870 2.0567 -6.8454 -0.0000 0.0000 0.0000 -0.0000 0.0000 0.0000 18.1301 -4.5690 -15.8312 -1.1313 -2.6938 89.8545 -0.0000 12.3547 0.0000 -31.2305 18.1945 21.8720 0.0000 -0.0000 0.0000 0.0000 -0.0000 0.0000
 -93.3228 32.9752 -18.3391 170.4316 -73.3987 168.3900 12.9403 -25.3360 -3.2186 9.7862 0.0000 -0.0000 -13.4997 -9.2606 -11.7069 -7.0243 -0.0000 0.0000 -22.3820 0.0786 -4.6808 2.2427 -0.0000 -0.0000 -13.2752 5.8242 16.6841 1.8308 -0.0000 0.0000 -5.8833 0.0717 -1.3274 1.5243 -1.1075 2.5149 19.8804 15.7031 3.1424 2.2112 -4.6376 -3.4153 17.5364 -6.1095 25.3540 -17.3387 -13.4510 -94.4419 -0.0001 -32.3793 -0.0000 -14.1672 2.0559 -7.1276 0.0000 -0.0000 -0.0000 0.0000 -0.0000 -0.0000 18.1155 -4.5166 -15.8761 -1.5954 -3.1496 89.0163 -0.0000 12.5287 0.0000 -31.9061 18.5588 21.6353 -0.0000 0.0000 0.0000 -0.0000 0.0000 0.0000
 -93.6792 32.9493 -18.4942 171.3928 -73.9850 169.0829 13.7404 -25.2672 -2.8904 10.5372 -0.0000 0.0000 -13.2985 -9.7193 -11.8036 -7.8459 0.0000 -0.0000 -22.0775 -0.8197 -4.2717 3.6990 0.0000 -0.0000 -13.3725 6.2694 17.0264 1.7012 -0.0000 0.0000 -5.9760 0.0752 -1.1445 1.8068 -1.1349 2.5952 19.8289 16.0249 3.1542 2.3646 -4.9926 -3.3228 17.4617 -5.9620 25.2561 -16.8066 -13.4889 -94.5160 -0.0001 -31.1824 -0.0000 -13.8925 2.1872 -7.2898 0.0000 0.0000 -0.0000 0.0000 0.0000 -0.0000 17.8549 -4.1672 -15.9308 -1.8977 -4.0184 88.1817 -0.0000 12.6812 0.0000 -32.2617 19.0017 21.5181 0.0000 -0.0000 -0.0000 0.0000 -0.0000 -0.0000
 -94.0173 32.9177 -18.6142 171.2510 -74.2501 168.9554 13.8416 -25.0618 -2.9817 11.5600 -0.0000 0.0000 -13.1106 -10.0769 -11.7555 -8.4996 -0.0000 0.0000 -22.2649 -1.1099 -4.1461 5.2748 0.0000 0.0000 -13.3101 7.2551 17.7199 1.8639 0.0000 -0.0000 -6.0608 0.2274 -1.0545 1.5382 -0.9933 2.6232 19.9010 16.0866 3.0469 2.5815 -5.1761 -3.0670 17.6957 -5.7881 25.1640 -16.4710 -13.6398 -94.6240 -0.0001 -29.9415 -0.0000 -13.6227 2.3490 -7.1134 0.0000 -0.0000 0.0000 0.0000 -0.0000 0.0000 17.8592 -4.1134 -16.0137 -2.4638 -4.4764 87.2902 -0.0000 12.7188 0.0000 -32.8490 19.2409 21.4335 0.0000 0.0000 0.0000 0.0000 0.0000 0.0000
 -94.3721 32.8863 -18.7441 171.1020 -74.5358 168.8125 14.0172 -24.9074 -3.0327 12.5033 0.0000 -0.0000 -12.8094 -10.4466 -11.6535 -9.2264 0.0000 -0.0000 -22.3233 -1.0592 -3.9824 6.7444 -0.0000 -0.0000 -13.4420 8.0718 17.5592 1.9888 0.0000 0.0000 -6.1976 0.3531 -0.9668 1.2834 -0.8802 2.6292 20.0037 16.1289 2.9840 2.7784 -5.3069 -2.8981 17.9127 -5.6040 25.0461 -16.0079 -13.7433 -94.6656 -0.0001 -28.6988 -0.0000 -13.5882 2.3979 -7.2455 0.0000 -0.0000 -0.0000 0.0000 -0.0000 -0.0000 17.7533 -4.0579 -16.1099 -2.8894 -4.7823 86.4436 -0.0000 12.7878 0.0000 -33.3061 19.5409 21.1504 -0.0000 -0.0000 0.0000 -0.0000 -0.0000 0.0000
 -94.7394 32.8594 -18.8798 171.2584 -75.1223 168.8368 14.3660 -24.8210 -2.8610 13.5590 -0.0000 0.0000 -12.4832 -10.9753 -11.7594 -9.9848 0.0000 -0.0000 -22.0373 -1.0176 -3.7818 7.8547 0.0000 0.0000 -13.6890 8.4341 17.7198 2.1153 -0.0000 0.0000 -6.5005 0.2822 -0.7469 1.5126 -0.9812 2.5287 19.9612 16.2720 2.9207 3.0141 -5.3929 -2.6842 17.7255 -5.7354 24.9644 -14.8820 -13.1601 -94.6741 -0.0001 -27.7371 -0.0000 -12.9876 2.7612 -7.2749 -0.0000 -0.0000 0.0000 -0.0000 -0.0000 0.0000 17.6675 -3.7773 -16.1674 -3.4996 -5.0999 85.5864 -0.0000 12.7794 0.0000 -33.9202 19.8255 21.0243 -0.0000 0.0000 -0.0000 -0.0000 0.0000 -0.0000
 -95.1073 32.8256 -19.0117 171.1132 -75.3744 168.6935 14.5196 -24.4263 -2.8836 14.5574 0.0000 -0.0000 -11.9873 -11.5656 -11.7616 -11.0391 0.0000 -0.0000 -21.8915 -0.2817 -3.5570 8.7346 -0.0000 0.0000 -13.6094 8.3375 18.8426 2.2985 0.0000 0.0000 -6.6231 0.4244 -0.6464 1.1852 -0.8527 2.5293 19.9870 16.2794 2.8615 3.4500 -5.5308 -2.5256 17.9731 -5.4919 24.8260 -14.4248 -13.2689 -94.6802 -0.0001 -26.4573 -0.0000 -12.8586 2.8631 -7.0593 -0.0000 -0.0000 0.0000 -0.0000 -0.0000 0.0000 17.5291 -3.7937 -16.2506 -3.9347 -5.5869 84.7769 -0.0000 12.7995 0.0000 -33.9502 20.1293 20.7059 0.0000 0.0000 -0.0000 0.0000 0.0000 -0.0000
 -95.5016 32.7982 -19.1705 172.2395 -75.8759 169.3927 15.2350 -23.8905 -2.3815 15.6578 -0.0000 0.0000 -11.5536 -12.4081 -11.8982 -12.0750 0.0000 0.0000 -21.1265 0.3204 -3.0004 9.1677 -0.0000 0.0000 -13.0749 8.2062 19.8851 2.4686 0.0000 0.0000 -6.8093 0.4274 -0.0973 1.4492 -0.9214 2.1756 19.8872 16.3132 3.0235 3.7294 -5.4860 -2.4294 17.5448 -5.7890 24.9118 -12.7969 -12.2437 -94.6882 -0.0001 -25.5127 -0.0000 -12.0970 3.1095 -7.3321 -0.0000 -0.0000 0.0000 -0.0000 -0.0000 0.0000 17.2449 -3.3628 -16.1486 -4.2051 -6.3039 84.0108 -0.0000 12.9190 0.0000 -34.0614 20.2797 20.6529 -0.0000 0.0000 -0.0000 -0.0000 0.0000 -0.0000
 -95.8774 32.7681 -19.2996 172.0235 -76.1986 169.1840 15.2285 -23.4668 -2.4076 16.9204 -0.0000 0.0000 -10.8992 -13.0868 -11.8588 -13.0637 -0.0000 0.0000 -20.7887 1.3072 -2.8591 9.6321 -0.0000 -0.0000 -12.1103 8.0673 20.6630 2.3935 -0.0000 0.0000 -6.9211 0.5682 0.0067 1.0838 -0.7926 2.1892 19.9595 16.4143 2.8390 4.0339 -5.7709 -2.0839 17.8950 -5.5593 24.7337 -12.4716 -12.4816 -94.5954 -0.0001 -24.1531 -0.0000 -12.1609 3.2455 -6.5972 -0.0000 0.0000 -0.0000 -0.0000 0.0000 -0.0000 17.1583 -3.4778 -16.1992 -4.6647 -6.7124 83.2064 -0.0000 13.0003 0.0000 -34.1878 20.5509 20.3843 0.0000 0.0000 -0.0000 0.0000 0.0000 -0.0000
 -96.2494 32.7423 -19.4264 171.7729 -76.7829 168.8837 15.1437 -23.0674 -2.3072 18.4362 0.0000 0.0000 -10.1672 -14.0406 -12.0123 -14.3237 0.0000 0.0000 -20.2932 2.1366 -2.7942 9.9697 -0.0000 -0.0000 -10.7864 7.4648 21.6993 2.6059 0.0000 -0.0000 -7.0142 0.5986 0.1785 0.8018 -0.7825 2.1408 19.9597 16.3921 2.7733 4.3674 -6.0134 -1.9683 18.0993 -5.4513 24.5267 -11.9384 -12.4148 -94.4531 -0.0001 -22.8816 -0.0000 -11.9807 3.6038 -6.2515 0.0000 -0.0000 0.0000 0.0000 -0.0000 0.0000 17.1065 -3.6069 -16.2459 -5.2533 -7.1964 82.4535 -0.0000 12.9776 0.0000 -34.4050 20.6815 20.4525 -0.0000 0.0000 -0.0000 -0.0000 0.0000 -0.0000
 -96.6237 32.7223 -19.5586 171.9642 -77.2930 168.7220 15.1108 -22.4915 -1.9547 20.2726 0.0000 0.0000 -9.6558 -15.0028 -12.3992 -15.0225 0.0000 -0.0000 -19.6373 3.1663 -2.4350 10.2383 0.0000 0.0000 -9.6898 6.2212 22.3915 2.9246 0.0000 -0.0000 -7.0868 0.5223 0.6735 0.6324 -0.9151 1.9426 19.9973 16.6038 2.6483 4.5501 -6.1281 -1.7280 17.7932 -5.6126 24.3909 -10.4068 -11.4095 -94.4274 -0.0001 -21.8870 -0.0000 -11.3296 3.8366 -5.9975 0.0000 -0.0000 0.0000 0.0000 -0.0000 0.0000 16.9465 -3.2918 -16.2822 -5.6595 -7.6891 81.7223 -0.0000 13.1303 0.0000 -34.3610 20.5835 20.1727 -0.0000 -0.0000 -0.0000 -0.0000 -0.0000 -0.0000
 -97.0051 32.7142 -19.7451 172.6731 -77.3128 168.4651 15.4320 -20.8126 -0.8622 21.9123 -0.0000 0.0000 -8.6851 -16.4860 -13.0330 -16.4077 0.0000 -0.0000 -19.2150 4.8885 -1.1572 10.9855 -0.0000 0.0000 -9.5904 4.4806 21.5580 3.5987 0.0000 0.0000 -7.2171 0.9791 1.5376 0.4465 -0.5538 1.9700 19.9580 16.3746 2.8594 4.8442 -6.3690 -1.6592 18.2196 -5.5400 24.4269 -10.2668 -11.5669 -94.1894 -0.0001 -20.3744 -0.0000 -11.4988 3.8245 -5.2652 -0.0000 -0.0000 0.0000 -0.0000 -0.0000 0.0000 16.8622 -3.5908 -15.9743 -6.1552 -8.2941 80.9495 -0.0000 13.2003 0.0000 -34.1595 20.7727 19.9494 -0.0000 -0.0000 0.0000 -0.0000 -0.0000 0.0000
 -97.3560 32.7118 -19.8867 172.0094 -77.3906 167.3158 14.8698 -19.5053 -0.3429 24.2270 0.0000 -0.0000 -8.4015 -17.6616 -14.0871 -10.6574 0.0000 -0.0000 -19.3785 6.2774 -0.4330 12.3040 0.0000 0.0000 -10.4776 3.3387 20.7226 3.4144 -0.0000 0.0000 -7.4583 1.1789 1.9870 0.2102 -0.4092 2.1626 19.9539 16.5650 2.7025 5.0597 -6.6988 -1.5251 18.1765 -5.5136 24.1480 -9.4825 -10.9829 -94.0689 -0.0001 -19.0633 -0.0000 -11.3853 3.8081 -4.5843 -0.0000 -0.0000 0.0000 -0.0000 -0.0000 0.0000 16.7303 -3.5069 -15.9859 -6.6946 -8.7776 80.1702 -0.0000 13.2446 0.0000 -34.3052 20.9143 19.8805 -0.0000 0.0000 -0.0000 -0.0000 0.0000 -0.0000
 -97.7015 32.7170 -20.0472 171.8233 -77.4717 166.1766 14.4077 -17.5720 0.7909 26.6326 0.0000 0.0000 -7.4202 -19.5502 -15.0405 -11.5826 0.0000 0.0000 -19.5832 7.4189 0.8361 13.7624 0.0000 0.0000 -11.3343 2.5161 19.3874 3.4013 0.0000 0.0000 -7.5677 1.3115 2.7315 -0.1168 -0.3732 2.4867 20.0571 16.7727 2.5714 5.2037 -6.9180 -1.5099 18.1636 -5.4426 23.9070 -8.5584 -10.0349 -94.0923 -0.0001 -17.8894 -0.0000 -10.8727 3.8126 -2.7823 0.0000 -0.0000 -0.0000 0.0000 -0.0000 -0.0000 16.6265 -3.2020 -16.0033 -7.0823 -8.9853 79.3606 -0.0000 13.3328 0.0000 -34.8033 20.9969 19.8102 -0.0000 0.0000 -0.0000 -0.0000 0.0000 -0.0000
 -98.0444 32.7300 -20.2087 172.3154 -77.5239 165.6480 13.8834 -15.5479 2.0181 29.2297 -0.0000 0.0000 -6.2880 -21.4534 -16.0790 -11.9606 -0.0000 0.0000 -19.7559 8.5228 2.2180 15.2588 0.0000 0.0000 -11.8806 1.9815 17.6679 3.3375 -0.0000 -0.0000 -7.5876 1.5105 3.4662 -0.2844 -0.2840 2.9180 19.9141 16.9196 2.4159 5.6262 -7.0611 -1.4965 18.1681 -5.1853 23.6711 -7.9895 -9.1679 -94.0940 -0.0001 -16.6128 -0.0000 -10.4794 3.9215 -1.7751 0.0000 0.0000 0.0000 0.0000 0.0000 0.0000 16.4819 -3.0396 -15.9886 -7.4755 -8.9709 78.5399 -0.0001 13.5576 0.0000 -35.3861 21.0336 19.5846 0.0000 -0.0000 0.0000 0.0000 -0.0000 0.0000
 -98.3787 32.7456 -20.3591 173.1986 -77.6170 165.5638 13.2182 -13.5909 3.2197 31.9798 -0.0000 0.0000 -5.0715 -23.2320 -17.5383 -11.8075 0.0000 -0.0000 -19.7835 9.5343 3.5506 16.5006 -0.0000 0.0000 -12.3357 1.2641 15.8516 3.5054 -0.0000 0.0000 -7.4913 1.6899 4.1984 -0.4999 -0.2332 3.3082 20.0613 17.1061 2.1852 5.5261 -7.2672 -1.5082 18.2024 -5.0418 23.4874 -7.3386 -8.2993 -94.0804 -0.0001 -15.4113 -0.0000 -10.3144 3.9941 -0.9539 -0.0000 0.0000 -0.0000 -0.0000 0.0000 -0.0000 16.3268 -2.6978 -16.1925 -8.1144 -9.9378 77.9656 -0.0000 13.3596 0.0000 -35.1212 21.1276 19.7351 0.0000 -0.0000 -0.0000 0.0000 -0.0000 -0.0000
 -98.7128 32.7633 -20.5058 174.5004 -77.8526 166.0459 12.4473 -11.9651 4.3266 34.8521 -0.0000 0.0000 -3.4865 -24.7971 -19.7097 -11.7366 0.0000 0.0000 -19.5626 10.4593 4.6982 17.4760 0.0000 0.0000 -12.7960 0.3817 14.4295 3.3923 0.0000 0.0000 -7.2819 1.8466 4.6958 -0.6705 -0.2046 3.7637 20.0782 17.1137 2.0661 5.5474 -7.3767 -1.6378 18.2663 -4.8389 23.4231 -6.7921 -7.2891 -94.2051 -0.0001 -14.3275 -0.0000 -9.9947 4.1822 -0.0078 0.0000 -0.0000 0.0000 0.0000 -0.0000 0.0000 16.2390 -2.5101 -16.2752 -8.6297 -10.1306 77.2476 -0.0001 13.4845 0.0000 -35.5955 20.9838 19.8782 0.0000 -0.0000 -0.0000 0.0000 -0.0000 -0.0000
